<svg width="512" height="512" viewBox="0 0 512 512" xmlns="http://www.w3.org/2000/svg">
  <!-- Yellow background circle -->
  <circle cx="256" cy="256" r="256" fill="#F4E96D"/>

  <!-- Black dots in circle -->
  <circle cx="256" cy="90" r="20" fill="#000000"/>
  <circle cx="334" cy="110" r="20" fill="#000000"/>
  <circle cx="390" cy="166" r="20" fill="#000000"/>
  <circle cx="410" cy="244" r="20" fill="#000000"/>
  <circle cx="390" cy="322" r="20" fill="#000000"/>
  <circle cx="334" cy="378" r="20" fill="#000000"/>
  <circle cx="256" cy="398" r="20" fill="#000000"/>
  <circle cx="178" cy="378" r="20" fill="#000000"/>
  <circle cx="122" cy="322" r="20" fill="#000000"/>
  <circle cx="102" cy="244" r="20" fill="#000000"/>
  <circle cx="122" cy="166" r="20" fill="#000000"/>
  <circle cx="178" cy="110" r="20" fill="#000000"/>

  <!-- Parachute canopy (black semicircle) -->
  <path d="M 180 220 Q 180 160 256 160 Q 332 160 332 220 Z" fill="#000000"/>

  <!-- Parachute panels (yellow) -->
  <path d="M 256 160 L 256 300 L 220 220 Z" fill="#F4E96D"/>
  <path d="M 256 160 L 256 300 L 240 215 Z" fill="#F4E96D"/>
  <path d="M 256 160 L 256 300 L 260 210 Z" fill="#F4E96D"/>
  <path d="M 256 160 L 256 300 L 272 215 Z" fill="#F4E96D"/>
  <path d="M 256 160 L 256 300 L 292 220 Z" fill="#F4E96D"/>

  <!-- Parachute strings (black lines) -->
  <line x1="180" y1="220" x2="240" y2="300" stroke="#000000" stroke-width="3"/>
  <line x1="200" y1="205" x2="245" y2="300" stroke="#000000" stroke-width="3"/>
  <line x1="230" y1="195" x2="250" y2="300" stroke="#000000" stroke-width="3"/>
  <line x1="256" y1="190" x2="256" y2="300" stroke="#000000" stroke-width="3"/>
  <line x1="282" y1="195" x2="262" y2="300" stroke="#000000" stroke-width="3"/>
  <line x1="312" y1="205" x2="267" y2="300" stroke="#000000" stroke-width="3"/>
  <line x1="332" y1="220" x2="272" y2="300" stroke="#000000" stroke-width="3"/>

  <!-- Basket (black rectangle) -->
  <rect x="236" y="300" width="40" height="30" fill="#000000" rx="3"/>
</svg>
